<?xml version="1.0" encoding="UTF-8"?>
<svg xmlns="http://www.w3.org/2000/svg" id="Layer_1" data-name="Layer 1" viewBox="0 0 65 65">
  <defs>
    <style>
      .cls-1 {
        fill: #feb706;
      }

      .cls-1, .cls-2 {
        stroke-width: 0px;
      }

      .cls-2 {
        fill: #000;
        fill-rule: evenodd;
      }
    </style>
  </defs>
  <rect class="cls-1" x="-1.8" y="-1.91" width="70.74" height="71.91"></rect>
  <g>
    <path class="cls-2" d="M32.76,14.56c.51,2.38-.26,4.56-1.72,4.87-1.46.31-3.06-1.37-3.57-3.75-.51-2.38.26-4.57,1.72-4.88,1.46-.31,3.05,1.37,3.56,3.76Z"></path>
    <path class="cls-2" d="M44.29,39.77c7.7-8.97,10.72-18.94,6.77-22.27-3.95-3.34-13.4,1.23-21.09,10.19-7.69,8.96-10.72,18.93-6.77,22.27,3.95,3.33,13.39-1.23,21.09-10.19ZM21.83,52.69c-5.12-4.36-1.78-16.68,7.54-27.44,9.32-10.76,21.09-15.9,26.21-11.54,5.11,4.36,1.71,16.62-7.61,27.39-9.32,10.76-21.02,15.96-26.14,11.59"></path>
    <path class="cls-2" d="M30.43,25.51c1.41.61,3.89,1.82,5.32,2.62,4.55,2.56,8.34,5.62,10.93,8.61.81-1.11,1.54-2.22,2.2-3.32-3.13-3.23-7.37-6.41-12.38-9.05-.74-.39-2.74-1.43-3.48-1.76-9.5-4.28-21.98-6.1-25.3.18-2.65,5.01,2.64,13.24,12.18,19.74.16-.7.35-1.41.57-2.14-6.62-5.21-10.11-11.14-8.12-14.68,2.3-4.07,10.36-3.55,18.08-.21"></path>
    <path class="cls-2" d="M35.22,49.74c8.28,2.51,16.46,1.94,18.81-2.51,1.5-2.84.44-6.71-2.51-10.71-.78,1.13-1.63,2.26-2.54,3.37,1.57,2.68,2,5.14.97,6.97-1.62,2.87-6.47,3.55-13,1.8-4.12-1.1-7.3-2.48-10.4-4.22-1.61-.9-3.12-1.87-4.52-2.87-.19.72-.34,1.41-.43,2.07,1.15.72,2.35,1.42,3.61,2.08,2.63,1.39,6.97,3.08,10.01,4.01"></path>
  </g>
</svg>
